<?xml version="1.0" standalone="no"?><!DOCTYPE svg PUBLIC "-//W3C//DTD SVG 1.1//EN" "http://www.w3.org/Graphics/SVG/1.1/DTD/svg11.dtd"><svg t="1711444938452" class="icon" viewBox="0 0 1962 1024" version="1.1" xmlns="http://www.w3.org/2000/svg" p-id="7761" width="122.625" height="64" xmlns:xlink="http://www.w3.org/1999/xlink"><path d="M830.780786 940.690271c182.771344 0 330.858637-77.529054 330.858636-173.080212s-148.087293-173.080212-330.858636-173.080211S499.922149 672.058901 499.922149 767.610059s148.087293 173.080212 330.858637 173.080212z" fill="#D39F85" p-id="7762"></path><path d="M830.780786 953.95182c-192.972535 0-344.120185-81.77955-344.120186-186.341761s151.147651-186.34176 344.120186-186.34176S1174.900971 663.047849 1174.900971 767.610059s-151.147651 186.34176-344.120185 186.341761z m0-346.160424c-172.230113 0-317.767108 73.108537-317.767108 159.818663s145.536995 159.818663 317.767108 159.818664 317.767108-73.108537 317.767108-159.818664-145.536995-159.818663-317.767108-159.818663z" fill="#47261A" p-id="7763"></path><path d="M499.922149 575.997683c40.464725 0 73.108537-28.053276 73.108537-62.737326s-32.813832-62.737326-73.108537-62.737326-73.108537 28.053276-73.108538 62.737326 32.813832 62.737326 73.108538 62.737326z" fill="#D39F85" p-id="7764"></path><path d="M499.922149 589.259232c-47.605559 0-86.370086-34.173991-86.370086-75.998875s38.764527-75.998875 86.370086-75.998875 86.370086 34.173991 86.370086 75.998875-38.764527 75.998875-86.370086 75.998875z m0-125.644672c-32.983852 0-60.017009 22.272601-60.017009 49.645797s26.863137 49.475778 60.017009 49.475778 60.017009-22.272601 60.017009-49.475778-26.863137-49.645798-60.017009-49.645797z" fill="#47261A" p-id="7765"></path><path d="M964.416391 576.847783s-12.751489-5.100596-295.494507-52.196096c-112.043084-18.702184-256.389941-50.835936-334.769093 186.001721 59.336929 149.787492 511.929782 317.087029 500.538451 65.287624 19.722303-65.287624-38.594507-45.565321-38.594507-45.565321" fill="#D39F85" p-id="7766"></path><path d="M698.505339 918.75771c-139.416281 0-335.959232-100.991794-376.423958-203.173726a13.669596 13.669596 0 0 1-0.34004-9.011052c79.569292-240.578094 229.526804-215.245136 339.18961-196.712972l10.201191 1.700199c263.530774 43.865122 294.814428 51.686036 298.214825 53.046194 6.800794 2.720318 10.031171 10.371211 7.310854 17.172006-2.550298 6.460754-9.861152 9.861152-16.321906 7.650893-3.060357-0.850099-34.003971-8.500993-293.454269-51.686036l-10.371211-1.700198c-110.342886-18.702184-235.477498-39.784646-308.075976 174.270351 44.885242 99.801655 272.201787 203.853806 392.745863 178.010787 56.276572-12.07141 83.309729-49.645798 80.589411-111.533024 0-1.530179 0-3.060357 0.51006-4.420517 5.100596-17.001985 3.910457-26.013038 1.020119-28.903375-3.910457-3.910457-15.811846-2.720318-22.78266-0.34004-6.970814 2.380278-14.451688-1.360159-16.661946-8.330972s1.360159-14.281668 8.330973-16.661946c3.230377-1.190139 32.303772-10.371211 49.645797 6.460754 11.39133 10.881271 13.601588 28.903375 6.630775 53.386235 2.550298 73.448577-33.493911 121.734216-101.501854 136.355923-14.961747 3.230377-31.113633 4.760556-48.115618 4.760556z" fill="#47261A" p-id="7767"></path><path d="M339.593426 698.071939S7.88469 632.784315 13.325325 882.543481c4.590536 132.955526 104.90225 113.913302 172.060093 89.770483 50.325877 1.020119 506.319127 10.031171 506.319127 10.031172" fill="#D39F85" p-id="7768"></path><path d="M102.925789 1002.747518c-23.1227 0-42.504964-5.270615-58.31681-15.981866C16.895742 967.893448 1.933995 933.039378 0.063777 883.053541c-1.360159-65.457644 19.042224-116.29358 60.867108-151.487691 97.081337-81.60953 273.731966-47.945599 281.212839-46.58544 7.140834 1.360159 11.90139 8.330973 10.371211 15.471807-1.360159 7.140834-8.330973 11.90139-15.471807 10.371211-1.700199-0.34004-171.890073-32.643812-259.110258 40.804765-35.36413 29.753475-52.536135 73.618597-51.345996 130.405229 1.360159 40.804765 12.581469 68.688021 32.983852 82.629649 24.992919 17.001985 64.777565 15.301787 121.394176-4.930576 1.530179-0.51006 3.230377-1.020119 4.760556-0.680079 50.325877 1.020119 506.319127 10.031171 506.319126 10.031171l-0.510059 26.353077s-443.071741-8.841032-503.938849-10.031171c-32.643812 11.39133-60.697088 17.172005-84.669887 17.172005z" fill="#47261A" p-id="7769"></path><path d="M863.084558 692.971343s-395.806221-5.270615-360.952151 198.243151c24.482859 142.986698 240.918134 102.181933 719.183984 108.472667" fill="#D39F85" p-id="7770"></path><path d="M838.941739 1013.798809c-219.325612 0-331.708736-13.431569-349.900861-120.374057-7.310854-43.015023 2.550298-80.759431 29.413435-112.213104 88.580344-103.712111 334.429054-101.501853 344.800265-101.501853 7.310854 0 13.091529 6.120715 13.091529 13.431568s-6.460754 12.581469-13.431569 13.091529c-2.380278-0.34004-243.808471-2.040238-324.397882 92.320781-21.762541 25.502978-29.413435 55.086433-23.46274 90.450563 17.342025 101.331833 148.257313 100.311714 434.910788 97.591396 79.399272-0.680079 169.339775-1.530179 271.521707-0.17002 7.310854 0 13.091529 6.120715 13.091529 13.431569 0 7.310854-6.120715 13.941628-13.431568 13.091528-102.011913-1.360159-191.782396-0.51006-271.011648 0.17002-39.784646 0.34004-76.848974 0.680079-111.192985 0.68008z" fill="#47261A" p-id="7771"></path><path d="M1309.896736 1004.957776c-38.254467-1.190139-205.043944 24.482859-344.970285-209.63448-102.181933-170.869954-99.121575-395.806221 13.941628-529.781867C1128.99561 87.870681 1339.48019 121.194573 1339.48019 121.194573s59.846989-144.176837 179.710986-98.951556c120.034017 45.225281 51.686036 161.178822 51.686036 161.178823s117.993779 53.726274 189.912178 172.740172c31.623693-4.080477 136.525943-51.175976 179.370946 59.846988 42.845003 111.022965-88.920384 172.740172-88.920384 172.740173s50.325877 258.260159-125.644672 374.723759c-103.882131 69.028061-367.922965 43.015023-415.868564 41.484844z" fill="#D39F85" p-id="7772"></path><path d="M1465.124863 1024c-53.046195 0-100.481734-2.890338-130.235209-4.590536-9.861152-0.680079-17.682065-1.020119-23.29272-1.360159H1297.825326c-52.366115 1.360159-212.184778 4.590536-344.290205-216.265255-106.942488-178.860887-100.481734-408.047651 15.301787-545.083653 136.015884-161.008802 317.597088-154.378028 362.652349-150.127532 26.013038-54.406353 93.85096-134.145665 192.632495-97.081337 38.254467 14.451688 63.077366 37.234348 73.788617 67.667902 13.771608 39.104567 0 79.909332-9.011052 100.141695 31.963733 17.001985 118.503839 69.198081 178.520847 163.899139 2.720318-0.680079 5.780675-1.360159 9.011052-2.210258 44.035142-10.881271 135.675844-33.493911 176.310589 71.918399 35.19411 91.130642-36.724289 158.118465-86.540106 184.981601 7.650893 49.985837 30.433554 269.991529-132.955526 378.294177-61.037128 40.464725-173.420252 49.645798-267.95129 49.645797z m-155.228127-32.473792h0.340039c5.780675 0.17002 14.791727 0.680079 26.183058 1.360159 80.419391 4.930576 294.134348 17.682065 382.034613-40.634746 166.279418-110.172866 120.374057-358.571873 119.863997-361.12217-1.190139-5.950695 1.870218-11.90139 7.310854-14.451688 4.930576-2.380278 119.863997-57.97677 82.11959-156.078227-32.133752-83.649768-103.032032-66.137723-145.196956-55.766512-7.820913 1.870218-14.621707 3.570417-20.062343 4.250497a13.006519 13.006519 0 0 1-12.921509-6.290735c-68.688021-113.913302-182.941363-166.959497-183.961482-167.469557a13.142535 13.142535 0 0 1-5.950695-18.702184c0.34004-0.51006 28.053276-48.795698 13.091529-90.620582-7.990933-22.612641-27.543216-39.954666-58.146791-51.516016-106.602449-40.124686-160.668762 86.200066-162.87902 91.640702-2.380278 5.610655-8.160953 8.841032-14.281668 7.990933-2.040238-0.34004-205.213964-29.753475-348.540702 139.75632-108.642687 128.70503-114.083322 344.970285-12.751489 514.48008 124.114494 207.594242 267.101191 204.533885 320.997486 203.343746h12.581469z" fill="#47261A" p-id="7773"></path><path d="M1370.083764 752.478292c-4.080477 4.590536-8.330973 9.011052-12.921509 13.091529-54.746393 5.950695-100.821774 18.192124-134.655725 29.753475-6.630774-3.230377-12.751489-7.310854-18.362144-12.24143-42.845003-38.084447-38.084447-113.403243 10.711251-168.489676 48.795698-54.916413 123.094375-68.688021 165.939378-30.603573 42.845003 38.084447 38.084447 113.403243-10.711251 168.489675z" fill="#EDD0CE" p-id="7774"></path><path d="M1359.372513 544.88405c17.512045 0 31.623693-14.111648 31.623693-31.623693s-14.111648-31.623693-31.623693-31.623693-31.623693 14.111648-31.623693 31.623693 14.111648 31.623693 31.623693 31.623693zM1453.223473 626.6636c17.512045 0 31.793713-14.281668 31.793713-31.793713s-14.281668-31.793713-31.793713-31.793712-31.793713 14.281668-31.793713 31.793712 14.281668 31.793713 31.793713 31.793713zM1284.563777 702.492455a8.705017 8.705017 0 0 1-6.800794-14.451687l29.923494-35.19411c3.230377-3.740437 8.671013-4.080477 12.41145-1.020119 3.740437 3.230377 4.250496 8.671013 1.020119 12.411449l-29.923494 35.19411c-1.700199 2.040238-4.250496 3.060357-6.800795 3.060357z" fill="#47261A" p-id="7775"></path><path d="M1303.776021 742.787161c-4.930576 0-8.841032-4.080477-8.671013-8.841033 0-12.751489-5.780675-24.312839-16.321906-31.623693-10.371211-7.310854-23.29272-9.011052-35.19411-4.420516-4.590536 1.700199-9.691132-0.680079-11.39133-5.100596-1.700199-4.590536 0.680079-9.691132 5.100596-11.39133a55.256453 55.256453 0 0 1 51.516016 6.630775c15.131767 10.541231 23.972799 27.883256 23.802779 46.2454 0 4.760556-3.910457 8.671013-8.841032 8.671013zM1310.406795 663.727928c-4.930576-3.060357-12.411449-15.811846-9.351092-34.85407 3.060357-19.042224 12.411449-28.223296 20.232363-28.223296s20.572402 10.201191 28.563335 17.682065c7.820913 7.480874 23.29272 19.382263 21.422502 29.413435-1.870218 10.031171-15.301787 19.382263-23.972799 20.402383-8.671013 1.020119-27.203177 1.530179-36.894309-4.420517z" fill="#47261A" p-id="7776"></path><path d="M1535.173043 163.189477a584.290232 584.290232 0 0 0-144.176837-45.395301c0.850099-2.550298 1.700199-5.270615 2.720318-7.820914 19.042224-47.775579 65.627664-74.298676 104.56221-58.826869 38.254467 15.131767 54.406353 64.947584 36.894309 112.043084zM1841.88886 534.512839c-1.700199 0.680079-3.400397 1.190139-4.930576 1.700199a504.448908 504.448908 0 0 0-54.066313-140.77644c1.700199-0.850099 3.570417-1.530179 5.440635-2.210258 48.115619-18.192124 99.121575-1.360159 113.913303 37.574388 14.791727 38.934547-12.24143 85.349967-60.357049 103.712111z" fill="#764539" opacity=".5" p-id="7777"></path><path d="M1089.891044 594.699867a55.426473 55.426473 0 1 0-0.017002-110.869947 55.426473 55.426473 0 0 0 0.017002 110.869947zM1597.23029 774.920913c0 3.740437-0.34004 7.310854-1.020119 10.711251-37.744408-10.881271-74.298676-17.512045-108.982727-20.912442a55.6645 55.6645 0 0 1 54.576373-45.395301c30.603574 0 55.426473 24.822899 55.426473 55.426472z" fill="#FFD5D4" opacity=".5" p-id="7778"></path><path d="M1161.639422 843.778954c-4.590536 0-9.011052-2.380278-11.56135-6.630774a13.295553 13.295553 0 0 1 4.930576-18.022105c8.841032-5.100596 219.495632-122.924355 492.887558-21.082462 6.800794 2.550298 10.371211 10.201191 7.820914 17.001986-2.550298 6.800794-10.201191 10.371211-17.001986 7.820913-261.490536-97.421377-468.404699 18.022105-470.444937 19.212244-2.040238 1.190139-4.250496 1.700199-6.630775 1.700198z" fill="#47261A" p-id="7779"></path></svg>