<?xml version="1.0" standalone="no"?><!DOCTYPE svg PUBLIC "-//W3C//DTD SVG 1.1//EN" "http://www.w3.org/Graphics/SVG/1.1/DTD/svg11.dtd"><svg t="1713487828004" class="icon" viewBox="0 0 1094 1024" version="1.1" xmlns="http://www.w3.org/2000/svg" p-id="3890" width="68.375" height="64" xmlns:xlink="http://www.w3.org/1999/xlink"><path d="M68.29417 580.655a443.345 443.345 0 1 0 886.691 0 443.345 443.345 0 1 0-886.69 0z" fill="#FF8A57" p-id="3891"></path><path d="M230.04017 319.535a317.673 317.673 0 0 0-58.415 81.454c-25.367 49.106-34.676 84.247-29.323 83.782s24.901-40.262 51.2-76.8a705.862 705.862 0 0 1 57.949-73.775c28.392-28.625-1.862-31.65-21.411-14.661z m69.353-51.666c6.516 6.516 2.56 14.895-5.12 21.876s-16.524 10.008-23.273 3.026a17.222 17.222 0 0 1 3.025-23.273 20.48 20.48 0 0 1 25.368-1.629z" fill="#FFFFFF" p-id="3892"></path><path d="M727.84417 238.545a244.13 244.13 0 0 1 195.025-71.68c121.716 11.171 134.05 103.564 134.05 103.564a214.575 214.575 0 0 1-137.774 39.098c-84.48-8.61-191.302-70.982-191.302-70.982z" fill="#69DB65" p-id="3893"></path><path d="M736.64917 633.654a22.807 22.807 0 1 0 2.554-45.543 22.807 22.807 0 1 0-2.554 45.543zM770.23917 740.943a22.807 22.807 0 1 0 2.554-45.543 22.807 22.807 0 1 0-2.554 45.543zM685.65417 753.911a22.807 22.807 0 1 0 2.554-45.543 22.807 22.807 0 1 0-2.554 45.543zM715.60617 833.337a22.807 22.807 0 1 0 2.554-45.543 22.807 22.807 0 1 0-2.554 45.543zM621.37417 865.011a22.807 22.807 0 1 0 2.554-45.542 22.807 22.807 0 1 0-2.554 45.542z" fill="#E2642D" p-id="3894"></path><path d="M652.20717 251.345a36.77 36.77 0 0 0 20.015 46.546 36.77 36.77 0 0 0 49.803-5.818 29.09 29.09 0 0 0-2.792-30.255c15.36-15.36 44.45-44.683 74.24-76.567a751.476 751.476 0 0 0 97.745-126.604c1.396-11.17-65.862-57.483-63.07-23.272 3.026 40.727-99.374 162.909-134.748 205.265a33.745 33.745 0 0 0-41.193 10.705z" fill="#604D42" p-id="3895"></path><path d="M1084.84717 226.444a179.433 179.433 0 0 0-164.538-103.099h-2.793a11.636 11.636 0 0 0 0 23.273 151.273 151.273 0 0 1 142.43 81.92 212.945 212.945 0 0 1-109.848 44.684c-50.036 8.843-149.41-12.335-150.575-12.567a11.636 11.636 0 0 0-11.403 18.85 431.71 431.71 0 1 1-537.833-104.727 11.636 11.636 0 0 0-11.17-20.48A455.215 455.215 0 1 0 824.89017 289.28a452.655 452.655 0 0 0 129.163 6.982c98.91-17.222 128-57.018 129.164-58.647a11.636 11.636 0 0 0 1.63-11.171z" fill="#604D42" p-id="3896"></path><path d="M284.49817 157.324a11.636 11.636 0 0 0 4.422 0c12.102-5.12 24.669-9.775 37.469-13.731a11.636 11.636 0 1 0-6.982-23.273c-13.265 4.19-26.53 9.076-39.564 14.43a11.636 11.636 0 0 0 4.422 23.272z m93.324-27.23a435.665 435.665 0 0 1 77.73-6.981 427.52 427.52 0 0 1 186.182 42.356 11.636 11.636 0 0 0 10.008-20.945A450.793 450.793 0 0 0 454.85417 99.84a460.567 460.567 0 0 0-81.92 7.215 11.636 11.636 0 0 0-9.309 13.498 11.87 11.87 0 0 0 14.197 9.542z" fill="#604D42" p-id="3897"></path></svg>